<svg xmlns="http://www.w3.org/2000/svg" width="24" height="24" fill="none" viewBox="0 0 24 24">
  <path fill="#000" d="M22.649 12c0 5.881-4.768 10.649-10.649 10.649C6.119 22.649 1.351 17.88 1.351 12 1.351 6.119 6.12 1.351 12 1.351c5.881 0 10.649 4.768 10.649 10.649Z"/>
  <path fill="#fff" d="M6.217 4.623c1.434.02 2.187.394 3.155 1.401 1.98-.58 3.146-.6 5.318 0 .853-.914 1.548-1.346 3.291-1.4.69 1.157.522 1.959.168 3.288.995 1.145 1.313 1.96 1.33 3.807-.334 2.997-1.52 4.052-5.031 5.061.13 2.183.167 3.28.117 4.847.128.31.293.428.6.541-1.6.54-4.104.746-6.302.012.33-.12.51-.258.731-.553v-1.752c-.963.194-1.489.222-2.347 0-.86-.466-1.208-.82-1.613-1.598-.332-.797-.644-1.187-1.426-1.778 0-.157.127-.285.285-.285h.596c.444.15.675.28 1.024.668l1.073 1.22c1.014.322 1.545.358 2.408.175.023-.586.078-.913.186-1.497-3.502-.858-4.67-1.974-5.151-5.151.123-1.834.42-2.662 1.435-3.717-.45-1.41-.493-2.175.153-3.288Z"/>
</svg>
