<svg xmlns="http://www.w3.org/2000/svg" width="24" height="24" fill="none" viewBox="0 0 24 24">
  <path fill="#FF3E00" d="M11.911 2.378c2.655-.658 4.003-.464 6.145.948 2.537 2.372 2.853 5.187 1.408 7.66l-1.77-1.806c.475-1.6.349-2.462-.91-3.96-1.067-.86-2-1.093-3.698-.783L7.662 7.819c-1.337 1.095-2.184 3.183-.32 5.213 1.365 1.11 2.191 1.272 3.746.935l2.304-1.38c1.094-.923 2.414.415 1.575 1.526L9.984 17.28c-.671.279-1.69-.34-1.46-1.268-.956-.238-1.444-.476-2.2-1.152-.496 1.313-.467 2.094.602 3.637 1.191 1.104 2.067 1.338 4.01 1.06l5.898-3.766c1.157-1.51 1.312-3.198-.186-4.805-1.01-.902-1.662-1.139-2.96-1.096l-1.137.278-1.856 1.175C9.14 12.518 7.94 10.56 9.387 9.695l4.692-2.962c.94-.234 1.474.317 1.474 1.318.871.22 1.336.475 2.14 1.13l1.77 1.805c.538.923.645 1.67.55 3.345-.188 1.47-.68 2.252-2.107 3.592l-5.482 3.466c-2.263 1.2-5.174.466-6.386-.73-1.15-.84-1.671-1.517-2.205-3.379-.326-1.865-.173-2.798.76-4.248-.463-.8-.608-1.315-.64-2.377-.02-1.841.333-2.789 1.716-4.302l6.242-3.975Z"/>
</svg>
