<svg xmlns="http://www.w3.org/2000/svg" width="22" height="22" fill="none" viewBox="0 0 22 22">
  <path fill="#000" d="M21.297 10.649c0 5.88-4.767 10.648-10.648 10.648C4.768 21.297 0 16.53 0 10.65 0 4.768 4.768 0 10.649 0c5.88 0 10.648 4.768 10.648 10.649Z"/>
  <path fill="#fff" d="M4.866 3.272c1.433.02 2.187.394 3.155 1.4 1.979-.579 3.146-.599 5.317 0 .854-.914 1.549-1.346 3.292-1.4.689 1.158.522 1.96.168 3.289.994 1.145 1.312 1.959 1.33 3.807-.334 2.997-1.52 4.052-5.031 5.06.13 2.184.166 3.28.116 4.848.128.31.293.427.6.54-1.6.54-4.103.747-6.301.012.33-.12.51-.257.731-.552v-1.752c-.964.194-1.49.222-2.347 0-.861-.466-1.209-.82-1.613-1.598-.333-.798-.645-1.187-1.427-1.778 0-.157.128-.285.285-.285h.597c.444.15.675.28 1.023.668l1.074 1.22c1.013.321 1.544.358 2.408.175.022-.586.078-.914.186-1.497-3.503-.859-4.67-1.974-5.152-5.152.124-1.834.421-2.661 1.435-3.716-.45-1.41-.493-2.176.154-3.289Z"/>
</svg>
