<svg xmlns="http://www.w3.org/2000/svg" width="90" height="90" fill="none" viewBox="0 0 66 66">
  <path stroke="#373E6D" stroke-width="2"
    d="M35 41a3 3 0 1 1 0 6 3 3 0 0 1 0-6Zm9-11a3 3 0 1 1 0 6 3 3 0 0 1 0-6Zm-17-4a3 3 0 1 1 0 6 3 3 0 0 1 0-6Z" />
  <path fill="#373E6D" fill-rule="evenodd"
    d="M11 59a4 4 0 0 1-4-4v-3H1.5a1.5 1.5 0 0 1 0-3H7v-4H1.5a1.5 1.5 0 0 1 0-3H7v-4H1.5a1.5 1.5 0 0 1 0-3H7v-4H1.5a1.5 1.5 0 0 1 0-3H7v-4H1.5a1.5 1.5 0 0 1 0-3H7v-4H1.5a1.5 1.5 0 0 1 0-3H7v-3a4 4 0 0 1 4-4h3V1.5a1.5 1.5 0 0 1 3 0V7h4V1.5a1.5 1.5 0 0 1 3 0V7h4V1.5a1.5 1.5 0 0 1 3 0V7h4V1.5a1.5 1.5 0 0 1 3 0V7h4V1.5a1.5 1.5 0 0 1 3 0V7h4V1.5a1.5 1.5 0 0 1 3 0V7h3a4 4 0 0 1 4 4v3h5.5a1.5 1.5 0 0 1 0 3H59v4h5.5a1.5 1.5 0 0 1 0 3H59v4h5.5a1.5 1.5 0 0 1 0 3H59v4h5.5a1.5 1.5 0 0 1 0 3H59v4h5.5a1.5 1.5 0 0 1 0 3H59v4h5.5a1.5 1.5 0 0 1 0 3H59v3a4 4 0 0 1-4 4h-3v5.5a1.5 1.5 0 0 1-3 0V59h-4v5.5a1.5 1.5 0 0 1-3 0V59h-4v5.5a1.5 1.5 0 0 1-3 0V59h-4v5.5a1.5 1.5 0 0 1-3 0V59h-4v5.5a1.5 1.5 0 0 1-3 0V59h-4v5.5a1.5 1.5 0 0 1-3 0V59h-3Zm2-30h5a2 2 0 0 0 2-2v-6.5h7.5a2 2 0 0 0 2-2V13H37v4.1a2 2 0 0 1-.6 1.5L29 25.5l1.5 1.5 8-8.4c.3-.4.5-.9.5-1.4V13h7v10h-5a2 2 0 0 0-1.6.7l-5 5.7a2 2 0 0 0-.4 1.3v1.5c0 .5-.2 1-.6 1.4l-2.8 2.8a2 2 0 0 1-1.4.6H13v-8Zm5-2h-5V13h14v5.5h-7a2 2 0 0 0-2 2V27Zm30 26v-7.8c0-.9-.8-1.7-1.6-2.4-.7-.6-1.4-1.2-1.4-1.8v-4h-2v4c0 1.4 1 2.2 1.7 3 .7.5 1.3 1 1.3 1.7V53H13v-5h9.3c.9 0 1.7-.8 2.4-1.6.6-.7 1.2-1.4 1.8-1.4h5v-2h-5c-1.4 0-2.2 1-2.9 1.7-.6.7-1 1.3-1.8 1.3H13v-7h16.2c.5 0 1-.2 1.4-.6l4.8-4.8c.4-.4.6-.9.6-1.4v-1.5c0-.5.2-.9.4-1.2l3-3.7A2 2 0 0 1 41 25h5a2 2 0 0 0 2-2V13h5v40h-5Z"
    clip-rule="evenodd" />
</svg>