<svg xmlns="http://www.w3.org/2000/svg" width="48" height="48" fill="none" viewBox="0 0 48 48">
  <rect width="44" height="44" x="2" y="2" fill="#67E89F" rx="8"/>
  <path fill="#fff" d="M4.956 25.634c-1.633-1.488-1.633-3.901 0-5.39L21.044 5.575c1.633-1.488 4.28-1.488 5.912 0l16.088 14.67c1.633 1.488 1.633 3.901 0 5.39L26.956 40.303c-1.633 1.488-4.28 1.488-5.912 0L4.956 25.634Z"/>
  <path fill="#67E89F" d="M31.04 30.807C31.04 37.29 29.32 46 21.575 46c-3.089 0-9.895-3.353-9.895-15.612 0-6.48 13.337-7.858 6.023-18.022 8.174 3.458 13.337 11.96 13.337 18.441Z"/>
  <path fill="#67E89F" d="M25.76 30.154c0 4.737.821 11.103 4.517 11.103 1.474 0 4.723-2.45 4.723-11.409 0-4.736-6.365-5.743-2.875-13.17-3.901 2.527-6.365 8.74-6.365 13.476Z"/>
  <path fill="#fff" d="M29.719 34.899c0 3.276-3.516 6.787-5.274 6.787-1.465 0-3.808.234-7.031-4.68-4.079-6.22 7.324-5.852 3.808-11.704 8.79 2.107 8.497 8.895 8.497 9.597Z"/>
</svg>
