<svg xmlns="http://www.w3.org/2000/svg" width="48" height="44" fill="none" viewBox="0 0 48 44">
  <path fill="#6B432F" stroke="#BA8469" stroke-width="2" d="M42.2 32.2v5.92l-.002.002c-7.3 2.73-12.935 4.072-18.448 4.078-5.164.006-10.295-1.16-16.66-3.567l-1.29-.498V32.2h36.4Z"/>
  <path fill="#FF6215" d="M.043 10.108a1.008 1.008 0 0 1 .44-.903c17.63-11.904 28.096-12.638 47.028 0 .298.2.473.55.446.907L46.26 33.076a1.008 1.008 0 0 1-.856.916c-18.044 2.7-25.079 2.655-42.806 0a1.008 1.008 0 0 1-.856-.916L.043 10.108Z"/>
  <path fill="#FFECE2" stroke="#3F50E4" stroke-width="2" d="M5.841 13.063c14.122.89 22.446.86 36.356.002h.001c-.014 6.31-.371 10.218-1.583 16.472h.001a.02.02 0 0 1-.004.002h-.002c-6.575-1.326-11.392-2.043-16.319-2.063-4.928-.021-9.92.655-16.851 2.065h-.003a.024.024 0 0 1-.006-.003c-1.38-6.305-1.769-10.2-1.592-16.475h.002Z"/>
  <path fill="#3F50E4" d="M18.737 25.2c1.01-.854 1.663-2.204 1.663-3.723 0-2.583-1.887-4.677-4.215-4.677-2.159 0-3.939 1.802-4.185 4.124 3.434.254 5.053 1.425 6.737 4.276Zm10.526 0c-1.01-.854-1.663-2.204-1.663-3.723 0-2.583 1.887-4.677 4.215-4.677 2.159 0 3.939 1.802 4.185 4.124-3.434.254-5.053 1.425-6.737 4.276Z"/>
</svg>
