<svg xmlns="http://www.w3.org/2000/svg" width="22" height="22" fill="none" viewBox="0 0 22 22">
  <path fill="#272B4C" d="M0 2a2 2 0 0 1 2-2h18a2 2 0 0 1 2 2v18a2 2 0 0 1-2 2H2a2 2 0 0 1-2-2V2Z"/>
  <path fill="#fff" d="M10.23 18H5.59V4.91h4.679c1.317 0 2.45.261 3.4.785a5.303 5.303 0 0 1 2.193 2.244c.516.976.773 2.143.773 3.503 0 1.363-.257 2.535-.773 3.515a5.315 5.315 0 0 1-2.205 2.257c-.955.524-2.097.786-3.426.786Zm-1.872-2.371h1.758c.818 0 1.506-.145 2.064-.435.563-.294.985-.748 1.266-1.362.285-.618.428-1.414.428-2.39 0-.968-.143-1.758-.428-2.372-.281-.613-.701-1.065-1.26-1.355-.558-.29-1.246-.434-2.064-.434H8.358v8.348Z"/>
</svg>
